# xmcd CD database file
#
# Track frame offsets:
#	150
#	12055
#	24547
#	36312
#	48680
#	60387
#	72350
#	84820
#	96805
#	110907
#	122430
#	135270
#	147437
#	159967
#	171322
#	184535
#	196205
#	208285
#	221540
#	233700
#	248020
#	259917
#	271325
#	283500
#	295542
#
# Disc length: 4110 seconds
#
# Revision: 0
# Processed by: cddbd v1.5.2PL0 Copyright (c) Steve Scherf et al.
# Submitted via: CDex 1.50
#
DISCID=64100c19
DTITLE=Various Artist - Jazz, Your Magic Spell Is Everywhere
DYEAR=1900
DGENRE=Jazz
TTITLE0=Boo's Walk
TTITLE1=Midnight Groove
TTITLE2=Pain Killer-1
TTITLE3=Watch Out
TTITLE4=Close Enough For Love
TTITLE5=Dean Street Cafe Blues
TTITLE6=Winter's Window
TTITLE7=S O S
TTITLE8=Unsung Hero
TTITLE9=Chinese Fingers
TTITLE10=Invitation
TTITLE11=Grantstand
TTITLE12=Old Fisherman's Daughter
TTITLE13=Real High, Real Fast
TTITLE14=I Hear A Rhapsody
TTITLE15=Mosuic
TTITLE16=When Something Is Wrong With My Baby
TTITLE17=Congo Chant
TTITLE18=Rhonda Mile
TTITLE19=I'm An Old Cow Hand
TTITLE20=Naptown Blues
TTITLE21=Work Song
TTITLE22=This One Is Benjamin's
TTITLE23=Con Alma
TTITLE24=Robbin's Nest
EXTD=
EXTT0=
EXTT1=
EXTT2=
EXTT3=
EXTT4=
EXTT5=
EXTT6=
EXTT7=
EXTT8=
EXTT9=
EXTT10=
EXTT11=
EXTT12=
EXTT13=
EXTT14=
EXTT15=
EXTT16=
EXTT17=
EXTT18=
EXTT19=
EXTT20=
EXTT21=
EXTT22=
EXTT23=
EXTT24=
PLAYORDER=
